<?xml version="1.0" encoding="utf-8"?>
<!-- Generator: Adobe Adobe Illustrator 24.2.0, SVG Export Plug-In . SVG Version: 6.00 Build 0)  -->
<svg version="1.1" id="Calque_1" xmlns="http://www.w3.org/2000/svg" xmlns:xlink="http://www.w3.org/1999/xlink" x="0px" y="0px"
	 width="158px" height="170px" viewBox="0 0 158 170" style="enable-background:new 0 0 158 170;" xml:space="preserve">
<g>
	<path d="M70.99,149.12c0.14-14.01,1.56-35.93,1.35-53.23c-0.05-4.65-0.98-8.06-4.52-10.2c-4.65-2.82-7.07-8.4-9.41-13.65
		c-2.37-5.32-5.26-9.73-9.32-13c-0.7-0.56-1.41-1.17-1.98-1.92c-1.24-1.61-2.83-3.16-2.03-5.83c0.77-2.58,2.81-1.98,4.35-2.24
		c5.16-0.87,9.55,1.47,13.35,5.69c1.04,1.15,1.95,2.48,3.46,2.98c2.5-2.2,1.72-5,1.33-7.98c-1.11-8.49-4.68-16.04-5.77-24.51
		c-0.15-1.2-0.42-2.41-0.39-3.61c0.07-2.94,0.64-5.82,3.32-6.44c2.68-0.62,4.59,1.21,5.54,4.29c1.51,4.87,2.91,9.79,4.27,14.73
		c0.46,1.67,2.15,6.77,4.18,8.83c0-5.76-0.78-13.89-0.74-18.77c0.03-2.96-0.51-6.2-0.21-9.13c0.41-3.93,2.35-6.43,5.55-6.56
		c3.33-0.14,4.48,2.84,4.87,6.45c0.11,1.04,0.26,2.07,0.4,3.58c0.16,6.63-0.6,15.85,0.71,23.17c2.28-4.14,3.24-10.59,3.98-14.1
		c0.78-3.7,1.83-7.32,2.9-10.9c0.74-2.45,2.36-3.4,4.39-2.97c1.91,0.41,2.79,2.1,3.11,4.36c0.47,3.36,0.13,6.7-0.79,9.81
		c-1.24,4.17-4.22,13.16-4.15,17.93c3.31-2.12,7.12-11.06,9.24-14.23c1.99-2.98,4.19-4.34,6.85-2.44c2.97,2.13,1.62,5.4,0.6,8.26
		c-2.11,5.86-5.73,10.64-7.5,16.79c-1.28,4.47-2.56,8.83-2.37,13.69c0.28,7.43-2.56,13.56-5.99,19.06c-1.7,2.73-2.35,5.24-2.43,8.51
		c-0.41,17.49-1.42,43.8-0.52,55.76c0.26,3.55-23.49,2.12-25.8,0.56"/>
	<path d="M106.7,82.93c1.34-2.79,2.68-0.55,4.22,0.49c0.76,0.52,2.52,3.58,4.05,6.27c1.53,2.69,2.26,3.03,2.26,3.03
		s0.52,1.04-0.31-3.26c-0.99-5.16-2.23-14.37-2.61-16.85c-0.51-3.41-2.25-7.81,0.17-9.27c2.77-1.67,2.82,4.78,4.01,7.82
		c0.29,0.73,2.69,11.95,3.14,13.51c0.56-4.18-1.32-19.34-0.62-22.65c0.37-1.74,0.69-3.26,2.06-2.95c1.41,0.32,1.69,2.16,1.89,3.94
		c0.4,3.6,0.69,15.8,1.11,19.85c1.53-2.17,1.44-13.62,1.98-15.91c0.47-2,0.88-3.94,2.56-3.39c1.85,0.61,1.76,2.81,1.65,4.98
		c-0.09,1.73-2.62,14.34-1.95,16.13c1.8-0.54,6.05-15.5,7.93-11.72c1.67,3.35-0.35,6.3-1.29,8.69c-0.83,2.1-2.56,4.99-2.77,8.66
		c-0.22,3.67,0.21,8.97-0.19,11.73c-0.77,5.25-0.69,2.34-1.33,5.9c-0.78,4.33-0.82,6.61-0.56,11.29c0.51,9.32,0.77,9.67,1.28,15.56
		c0.07,0.77-2.87,2.85-5.2,4.3c-2.45,1.53-6.3,3-8.46,3.33c-0.32,0.05-0.08-0.16-0.1-1.49c-0.02-1.72,0.24-5.01,0.16-6.46
		c-0.39-6.99,0.36-14.48-0.24-21.51c-0.35-4.09-0.86-7.6-3.43-9.89c-1.2-1.07-1.8-3.24-2.53-5.1c-1.34-3.38-2.62-6.85-4.95-8.89
		C107.2,87.85,106.48,85.85,106.7,82.93z"/>
	<path d="M21.98,81.01c1.67-2.63,2.81-0.27,4.27,0.92c0.73,0.59,2.2,3.8,3.48,6.61c1.29,2.81,1.99,3.23,1.99,3.23
		s0.42,1.08,0.03-3.26c-0.46-5.21-0.76-14.43-0.88-16.93c-0.16-3.42-1.47-7.95,1.16-9.15c3.02-1.37,2.38,5.01,3.28,8.15
		c0.21,0.75,1.49,12.09,1.77,13.68c1.01-4.07,0.71-19.25,1.78-22.46c0.56-1.68,1.05-3.15,2.43-2.7c1.42,0.46,1.5,2.31,1.51,4.09
		c0.03,3.6-0.98,15.69-0.98,19.74c1.8-1.99,2.93-13.32,3.73-15.52c0.7-1.93,1.32-3.81,2.99-3.09c1.83,0.79,1.5,2.96,1.16,5.09
		c-0.28,1.7-4.21,13.91-3.72,15.75c1.9-0.35,7.85-14.7,9.37-10.78c1.35,3.49-1.03,6.2-2.25,8.46c-1.07,1.99-3.15,4.67-3.77,8.28
		c-0.61,3.61-0.74,8.89-1.45,11.58c-1.35,5.11-0.96,2.25-1.99,5.7c-1.26,4.2-1.79,6.45-1.78,11.11c0,2.09,3.38,22.8,1.4,22.9
		c-6.87,0.34-12.27-4.15-14.48-6.18c-1.03-0.95-0.71-0.87-0.58-3.42c0.35-6.95,1.32-13.78,1.46-20.79c0.08-4.08-0.08-7.6-2.46-10.13
		c-1.12-1.19-1.5-3.38-2.05-5.3c-1.01-3.48-1.95-7.05-4.13-9.29C21.97,85.92,21.45,83.87,21.98,81.01z"/>
</g>
</svg>
