<?xml version="1.0" standalone="no"?>
<!DOCTYPE svg PUBLIC "-//W3C//DTD SVG 20010904//EN"
 "http://www.w3.org/TR/2001/REC-SVG-20010904/DTD/svg10.dtd">
<svg version="1.0" xmlns="http://www.w3.org/2000/svg"
 width="1280.000000pt" height="1174.000000pt" viewBox="0 0 1280.000000 1174.000000"
 preserveAspectRatio="xMidYMid meet">
<g transform="translate(0.000000,1174.000000) scale(0.100000,-0.100000)"
fill="#000000" stroke="none">
<path d="M5465 11654 c-83 -36 -214 -50 -267 -29 -35 14 -41 14 -61 0 -28 -19
-51 -19 -93 1 -31 15 -36 15 -52 2 -9 -9 -34 -19 -56 -22 -21 -4 -53 -14 -70
-23 -30 -14 -36 -14 -66 2 -45 23 -177 31 -246 15 -40 -10 -60 -10 -78 -2 -19
8 -27 7 -43 -9 -16 -16 -38 -21 -111 -25 -50 -2 -115 -9 -143 -14 -66 -13
-156 -53 -190 -86 -17 -16 -35 -24 -55 -22 -16 1 -39 -4 -51 -10 -12 -7 -31
-12 -42 -12 -11 0 -40 -18 -65 -40 -53 -45 -97 -60 -182 -60 -48 0 -65 4 -79
20 -12 13 -23 17 -34 11 -9 -5 -70 -11 -136 -14 -112 -6 -123 -5 -160 16 -23
13 -46 36 -55 55 -14 31 -17 33 -55 27 -50 -7 -56 -14 -93 -101 -61 -145 -110
-201 -217 -247 -44 -18 -98 -41 -120 -51 -22 -9 -68 -43 -103 -75 -50 -46 -62
-63 -62 -88 0 -22 -13 -48 -42 -85 -39 -48 -43 -59 -46 -118 -3 -52 -1 -69 12
-79 9 -7 16 -21 16 -30 0 -22 -127 -144 -243 -234 -87 -68 -88 -69 -180 -82
-50 -7 -104 -18 -118 -25 -27 -12 -47 -49 -69 -125 -19 -63 -36 -83 -100 -115
-56 -28 -61 -34 -95 -106 -21 -47 -35 -92 -35 -116 0 -54 -10 -69 -90 -133
-39 -31 -70 -63 -70 -72 0 -8 -13 -39 -29 -67 -16 -28 -39 -77 -51 -109 -15
-40 -30 -61 -49 -72 -16 -8 -33 -27 -40 -42 -12 -30 -31 -133 -31 -172 l0 -24
25 23 24 23 22 -37 c11 -20 27 -36 35 -36 20 0 54 -59 54 -95 0 -17 -6 -39
-14 -50 -26 -37 -29 -79 -7 -99 25 -22 41 -92 44 -181 2 -60 -4 -85 -36 -167
-25 -67 -37 -113 -37 -149 0 -60 -21 -101 -87 -170 l-43 -45 30 -23 c17 -12
38 -38 47 -57 9 -19 20 -34 24 -34 4 0 10 -16 13 -35 9 -44 36 -59 92 -51 24
3 45 2 48 -3 8 -12 -110 -29 -129 -19 -26 15 -31 2 -29 -79 2 -71 4 -79 30
-102 16 -13 33 -33 39 -44 18 -36 40 -43 92 -28 71 20 110 24 117 12 5 -7 -7
-11 -33 -11 -30 0 -41 -4 -41 -15 0 -9 9 -15 24 -15 34 0 41 -16 11 -24 -34
-9 -31 -28 12 -75 28 -31 40 -38 53 -31 14 7 21 0 39 -40 22 -49 102 -120 135
-120 8 0 20 -15 26 -34 6 -19 18 -40 26 -47 20 -17 46 -80 39 -96 -2 -8 5 -17
17 -22 22 -8 22 -8 -6 -23 l-28 -15 31 -24 c39 -31 73 -93 58 -108 -8 -8 -7
-11 2 -11 12 0 86 -32 169 -73 24 -12 48 -30 53 -39 5 -10 28 -27 49 -38 22
-11 40 -25 40 -31 0 -5 21 -19 46 -29 26 -12 81 -54 130 -101 74 -71 99 -88
210 -140 l126 -60 82 30 c44 17 108 41 142 55 44 18 101 30 200 41 140 15 304
16 304 3 0 -5 13 -8 30 -8 16 0 59 -10 94 -21 l65 -21 33 20 c18 11 56 26 83
33 28 6 80 27 116 45 36 18 90 40 120 50 30 9 56 19 58 20 2 2 -7 12 -20 23
-20 17 -21 20 -7 21 9 0 28 -12 41 -26 21 -22 28 -24 46 -15 11 6 25 20 30 30
13 24 98 42 251 53 261 18 297 7 400 -123 19 -24 35 -48 36 -54 5 -49 31 -109
59 -134 29 -25 38 -28 86 -24 30 3 59 11 64 17 6 8 42 13 95 14 98 3 149 10
169 25 10 9 16 7 26 -6 7 -9 24 -17 37 -17 20 0 27 -6 31 -30 8 -35 49 -65 89
-62 26 2 28 0 22 -23 -5 -19 -1 -32 14 -48 40 -44 43 -61 27 -137 -8 -39 -15
-87 -15 -106 0 -19 -11 -52 -25 -74 -27 -42 -31 -65 -15 -75 6 -3 10 -19 10
-36 0 -22 -5 -29 -20 -29 -23 0 -25 -12 -9 -42 9 -17 8 -23 -5 -30 -10 -6 -16
-22 -16 -48 0 -44 -39 -100 -71 -100 -10 0 -19 -2 -19 -5 0 -17 64 -124 76
-129 10 -4 13 -13 9 -26 -5 -15 0 -21 20 -26 20 -5 25 -11 21 -26 -6 -27 14
-58 39 -58 11 0 28 -7 38 -14 18 -14 18 -15 0 -25 -17 -10 -16 -13 12 -33 34
-25 89 -81 188 -192 72 -79 153 -217 143 -242 -3 -8 21 -74 53 -147 32 -73 64
-150 71 -172 7 -22 23 -60 36 -85 13 -25 26 -59 30 -77 5 -27 2 -36 -26 -62
-22 -20 -31 -35 -27 -48 18 -59 79 -205 101 -243 24 -42 26 -50 20 -130 -7
-94 -29 -149 -70 -177 -59 -41 -134 -134 -134 -167 0 -15 -6 -39 -14 -54 -7
-15 -19 -57 -25 -93 -15 -89 -47 -179 -72 -202 -17 -16 -19 -26 -13 -65 4 -26
7 -51 6 -57 0 -5 -3 -52 -6 -104 -6 -116 14 -178 83 -256 49 -56 135 -207 166
-290 10 -27 38 -78 62 -113 24 -35 43 -69 43 -76 0 -7 13 -25 30 -41 49 -47
57 -77 58 -226 1 -120 4 -142 25 -190 14 -30 27 -85 31 -124 9 -87 27 -174 38
-181 4 -3 8 -19 8 -37 0 -50 75 -191 132 -245 27 -26 60 -53 72 -61 31 -19 77
-97 116 -194 41 -106 68 -157 133 -254 39 -58 58 -96 63 -129 8 -53 -1 -73
-39 -92 -29 -14 -35 -36 -14 -49 6 -4 26 -31 44 -60 29 -47 30 -55 20 -88 -13
-43 4 -71 22 -36 16 28 39 27 47 -4 4 -18 13 -25 30 -25 13 0 33 -9 45 -21 11
-11 39 -27 61 -35 39 -13 42 -13 109 20 62 31 79 34 150 34 69 0 86 4 117 25
34 23 50 25 182 31 111 4 160 2 209 -9 57 -14 66 -14 81 0 10 9 36 15 68 15
39 0 52 4 52 15 0 23 35 35 83 29 30 -4 62 -1 98 11 76 25 258 152 365 254 50
47 110 101 133 120 49 38 171 198 194 253 18 43 79 104 145 147 56 35 78 69
93 142 6 30 19 79 29 109 24 71 32 206 13 221 -18 15 -17 49 3 77 20 29 109
73 204 102 41 12 91 30 110 40 69 36 124 116 95 140 -16 13 -11 52 11 109 10
23 11 38 4 46 -6 7 -7 33 -4 61 6 44 5 47 -8 30 -14 -17 -15 -14 -20 41 -3 33
-13 74 -22 91 -9 17 -16 47 -16 66 0 26 -8 44 -30 66 -22 22 -30 40 -30 66 0
43 15 74 37 74 8 0 49 34 90 75 43 44 82 75 94 75 12 0 37 19 57 42 117 133
136 150 237 198 55 26 117 50 138 53 22 4 52 18 71 34 17 16 46 35 64 42 19 8
42 31 58 59 15 25 44 64 65 87 63 68 84 152 54 212 -9 17 -18 74 -22 127 -3
53 -10 96 -16 96 -6 0 -2 9 8 20 13 15 15 23 7 33 -14 16 -18 201 -7 274 9 62
4 70 -71 118 -49 31 -53 37 -59 82 -6 46 -15 72 -52 147 -15 30 -15 41 -3 90
10 43 11 59 2 68 -16 16 -14 59 3 82 21 28 19 52 -7 73 -49 39 -88 94 -88 122
0 44 59 193 86 218 13 12 43 61 67 110 24 48 48 97 54 108 6 11 15 38 20 60 7
34 15 43 53 62 25 13 60 39 77 59 18 21 42 42 54 48 12 6 44 46 71 90 54 87
227 276 370 404 66 58 122 97 193 134 81 41 118 68 193 142 100 97 255 271
264 296 3 9 31 51 63 95 67 94 90 137 99 186 3 19 25 64 47 98 22 35 48 79 56
99 8 21 29 52 45 71 17 19 39 54 49 78 11 25 32 64 48 86 21 30 31 60 36 102
4 33 16 75 27 93 15 25 21 54 23 115 1 45 6 92 10 104 6 19 2 23 -32 29 -51
10 -61 8 -95 -26 -17 -18 -44 -32 -66 -35 -20 -3 -66 -15 -102 -25 -41 -13
-78 -18 -100 -14 -23 4 -50 0 -75 -10 -29 -12 -54 -15 -93 -10 -49 6 -57 4
-111 -30 -63 -38 -103 -45 -160 -25 -29 10 -39 8 -97 -22 -91 -45 -160 -51
-214 -15 -21 14 -57 50 -79 80 -43 58 -75 73 -141 67 -31 -3 -33 -2 -20 14 8
9 38 28 67 41 43 18 53 28 53 47 0 29 -38 88 -66 102 -38 19 -104 78 -104 93
0 18 -66 82 -85 82 -8 0 -33 25 -55 56 -44 58 -53 64 -141 88 -47 13 -61 22
-83 56 -30 45 -43 50 -48 19 -2 -18 -9 -13 -36 29 -42 65 -62 114 -62 152 0
35 -33 134 -67 201 -12 26 -23 52 -23 58 0 6 -17 19 -37 30 -21 10 -49 31 -63
46 -14 15 -38 34 -53 42 -16 8 -35 29 -42 46 -15 35 -40 261 -31 283 3 7 1 16
-5 19 -5 4 -8 18 -7 33 1 15 -8 43 -20 62 -12 19 -22 46 -22 60 0 29 -83 116
-140 147 -47 26 -80 85 -80 145 0 26 5 50 11 54 7 4 -5 22 -30 48 -22 22 -48
59 -57 81 -9 22 -52 99 -95 171 -44 72 -79 137 -79 146 0 22 -26 81 -54 122
-14 21 -22 44 -19 55 3 13 -2 24 -17 33 -29 17 -120 143 -120 165 0 10 -9 33
-21 52 -13 21 -18 43 -15 57 7 28 24 31 33 7 4 -10 26 -47 50 -82 24 -35 43
-73 43 -86 0 -22 93 -120 136 -143 34 -18 64 10 62 56 0 20 6 51 14 67 8 17
19 48 23 70 3 21 13 52 22 68 13 25 13 32 0 60 -26 54 -87 210 -87 221 0 5 8
18 18 29 11 14 3 11 -27 -9 -41 -26 -52 -29 -123 -27 -42 1 -80 -2 -83 -7 -11
-19 -47 -10 -108 26 -46 27 -68 34 -90 30 -16 -3 -44 1 -64 9 -31 13 -42 13
-83 1 -27 -8 -50 -12 -53 -10 -2 2 -10 -2 -17 -11 -7 -8 -20 -15 -30 -15 -10
0 -41 -15 -69 -34 -66 -45 -99 -51 -147 -30 -35 15 -66 22 -174 41 -19 3 -44
12 -56 20 -33 21 -200 48 -285 45 l-75 -2 -15 32 c-14 32 -16 33 -89 39 -41 3
-88 11 -105 17 -16 6 -49 16 -72 22 -32 8 -43 17 -51 40 -9 25 -21 32 -81 50
-48 15 -87 20 -123 17 -67 -5 -193 -42 -237 -69 -63 -40 -88 -112 -56 -168 23
-40 18 -76 -16 -115 -71 -80 -136 -88 -226 -27 -79 53 -214 100 -324 112 -128
13 -164 37 -188 127 -14 50 -25 60 -81 69 -25 4 -61 15 -80 25 -20 9 -54 20
-75 24 -22 4 -55 11 -73 17 -24 7 -51 7 -92 -1 -55 -11 -63 -10 -119 14 -69
29 -96 31 -105 10 -10 -26 -35 -16 -51 21 -12 30 -17 34 -34 25 -14 -8 -22 -7
-31 4 -7 8 -22 15 -35 15 -30 0 -75 44 -75 72 0 17 16 33 61 61 33 22 72 57
86 78 23 36 25 43 15 77 -8 26 -21 43 -46 56 -59 31 -60 76 -3 111 31 20 57
68 44 81 -4 4 -27 -4 -51 -17 l-45 -24 -21 22 c-11 12 -20 29 -20 38 0 9 -9
15 -24 15 -14 0 -28 5 -31 10 -10 16 -35 12 -100 -16z m2395 -7900 c0 -8 -4
-14 -10 -14 -5 0 -10 9 -10 21 0 11 5 17 10 14 6 -3 10 -13 10 -21z"/>
<path d="M1710 10372 c-30 -24 -19 -47 13 -31 35 19 49 49 23 49 -8 0 -24 -8
-36 -18z"/>
<path d="M1026 10321 c-9 -14 4 -41 19 -41 15 0 28 27 19 41 -3 5 -11 9 -19 9
-8 0 -16 -4 -19 -9z"/>
<path d="M1655 10290 c-4 -11 -18 -34 -32 -50 -27 -33 -16 -40 31 -19 25 12
51 63 40 80 -10 16 -33 9 -39 -11z"/>
<path d="M1265 10275 c-16 -7 -38 -16 -47 -19 -15 -5 -16 -9 -6 -31 16 -35 41
-31 72 9 41 54 35 66 -19 41z"/>
<path d="M1136 10223 c-3 -3 -3 -10 0 -14 7 -12 34 -11 34 0 0 11 -26 22 -34
14z"/>
<path d="M1387 10213 c-13 -12 -7 -51 8 -57 34 -13 66 24 44 50 -12 15 -41 19
-52 7z"/>
<path d="M1005 10161 c-3 -5 -1 -12 5 -16 12 -7 30 2 30 16 0 12 -27 12 -35 0z"/>
<path d="M245 8419 c-4 -6 -5 -12 -2 -15 7 -7 37 7 37 17 0 13 -27 11 -35 -2z"/>
<path d="M626 8272 c-3 -6 -1 -14 5 -17 15 -10 25 3 12 16 -7 7 -13 7 -17 1z"/>
<path d="M490 8106 c0 -21 29 -41 41 -29 7 7 5 16 -6 27 -20 20 -35 21 -35 2z"/>
<path d="M12590 7729 c0 -12 9 -21 26 -25 54 -14 156 16 123 37 -7 4 -43 7
-81 7 -60 0 -68 -2 -68 -19z"/>
<path d="M5402 6308 c-7 -7 -12 -16 -12 -22 0 -5 -8 -18 -17 -28 -12 -14 -14
-21 -5 -30 16 -16 39 -3 57 33 14 27 15 34 3 45 -11 11 -16 12 -26 2z"/>
<path d="M10377 4914 c-10 -11 -8 -64 2 -64 13 0 24 51 13 62 -4 4 -11 5 -15
2z"/>
<path d="M10294 4754 c-5 -18 0 -32 17 -50 32 -35 42 -16 18 34 -12 23 -23 42
-25 42 -2 0 -7 -11 -10 -26z"/>
<path d="M10947 3874 c-12 -12 -8 -51 6 -63 19 -15 28 -3 21 28 -8 31 -18 44
-27 35z"/>
<path d="M11900 3771 c0 -5 -11 -23 -25 -39 -19 -22 -24 -37 -19 -58 7 -39
-19 -97 -53 -119 -15 -10 -36 -27 -45 -39 -15 -19 -17 -19 -23 -3 -4 9 -13 17
-20 17 -16 0 -28 -28 -18 -43 4 -7 8 -25 8 -40 0 -21 -6 -29 -22 -34 -26 -6
-28 -14 -11 -31 17 -17 -18 -53 -46 -46 -16 4 -26 -3 -40 -26 -10 -17 -16 -40
-13 -51 7 -25 -13 -37 -25 -15 -13 23 -32 20 -67 -10 -22 -19 -31 -35 -31 -57
-1 -28 -2 -30 -13 -15 -10 13 -23 15 -56 11 -23 -3 -45 -12 -48 -19 -3 -8 -20
-14 -42 -14 -20 0 -46 -6 -57 -14 -11 -8 -38 -16 -60 -18 -38 -3 -39 -4 -45
-48 -3 -29 -19 -65 -43 -99 -24 -35 -34 -60 -30 -70 4 -9 10 -47 14 -84 4 -38
12 -73 19 -80 6 -6 11 -25 11 -42 0 -16 8 -44 18 -60 31 -49 23 -118 -20 -195
-20 -36 -44 -82 -53 -103 -8 -20 -22 -37 -30 -37 -9 0 -26 -24 -41 -57 -36
-81 -31 -160 13 -229 30 -47 32 -53 27 -119 -6 -67 -4 -73 28 -127 40 -65 82
-104 124 -114 16 -4 45 -15 64 -26 47 -25 57 -23 141 17 41 19 86 35 102 35
57 0 93 24 112 76 10 27 29 75 41 106 13 31 35 104 49 162 13 59 39 139 56
179 17 39 39 104 49 142 10 39 53 166 94 284 66 186 76 224 76 282 0 58 4 72
24 94 42 45 43 83 5 182 -5 13 -6 30 -3 38 11 27 33 16 54 -25 24 -47 35 -50
54 -12 29 57 30 90 2 123 -23 27 -26 39 -26 112 -1 60 -6 93 -20 122 -11 22
-19 52 -20 66 0 14 -13 41 -30 59 -16 18 -30 39 -30 46 0 8 -9 18 -20 24 -11
6 -20 20 -20 30 0 11 -4 20 -10 20 -5 0 -10 -4 -10 -9z"/>
<path d="M11120 3750 c0 -5 7 -10 15 -10 8 0 15 5 15 10 0 6 -7 10 -15 10 -8
0 -15 -4 -15 -10z"/>
</g>
</svg>
