<?xml version="1.0" standalone="no"?>
<!DOCTYPE svg PUBLIC "-//W3C//DTD SVG 20010904//EN"
 "http://www.w3.org/TR/2001/REC-SVG-20010904/DTD/svg10.dtd">
<svg version="1.0" xmlns="http://www.w3.org/2000/svg"
 width="1280.000000pt" height="993.000000pt" viewBox="0 0 1280.000000 993.000000"
 preserveAspectRatio="xMidYMid meet">
<g transform="translate(0.000000,993.000000) scale(0.100000,-0.100000)"
fill="#000000" stroke="none">
<path d="M3415 9910 c-22 -10 -54 -19 -72 -19 -38 -1 -49 -14 -28 -31 12 -10
40 -11 118 -5 56 5 121 9 145 9 33 0 42 4 42 18 0 11 -10 20 -27 24 -16 3 -44
10 -63 15 -48 12 -69 10 -115 -11z"/>
<path d="M3533 9829 c-67 -21 -87 -45 -30 -36 17 2 46 -1 63 -8 17 -7 64 -16
105 -20 41 -4 107 -13 147 -21 71 -13 102 -11 102 7 0 5 -7 12 -16 16 -8 3
-20 17 -25 31 -9 23 -13 24 -71 20 -46 -3 -70 0 -96 14 -45 23 -99 22 -179 -3z"/>
<path d="M4026 9748 c-37 -52 -8 -88 54 -69 22 7 74 11 115 9 48 -1 79 2 87
10 24 24 -12 35 -152 46 -24 2 -46 9 -48 15 -6 19 -40 12 -56 -11z"/>
<path d="M4259 9618 c-1 -7 -1 -31 1 -52 l2 -39 -39 6 c-32 5 -41 3 -51 -13
-9 -15 -23 -20 -53 -20 -22 0 -60 -5 -83 -11 -36 -9 -49 -8 -74 5 -44 23 -134
21 -156 -3 -13 -14 -37 -19 -117 -25 -70 -4 -112 -12 -139 -26 -22 -11 -49
-20 -60 -20 -36 0 -18 -20 50 -53 44 -22 65 -38 65 -50 0 -17 -14 -18 -207
-20 -161 -2 -208 -5 -208 -15 0 -7 11 -17 25 -22 14 -5 30 -21 35 -34 8 -21
14 -24 47 -19 28 3 55 -3 105 -26 37 -17 74 -31 83 -31 8 0 15 -7 15 -15 0
-12 -15 -15 -67 -16 -38 -1 -72 -1 -78 1 -5 1 -30 6 -55 11 -25 6 -65 14 -90
18 -25 5 -60 14 -78 21 -36 13 -53 7 -34 -12 23 -23 12 -29 -40 -22 -45 5 -51
4 -40 -7 8 -9 37 -14 78 -15 57 -1 69 -5 95 -30 46 -44 24 -49 -108 -24 -155
29 -160 31 -173 78 -12 48 -40 77 -40 43 0 -14 -9 -25 -26 -31 -34 -13 -28
-38 16 -66 56 -36 70 -52 70 -81 1 -17 14 -43 35 -67 l34 -38 121 -2 c106 -2
123 -5 150 -24 16 -12 33 -22 38 -22 14 0 42 -35 42 -54 0 -9 16 -26 35 -37
41 -25 44 -36 11 -45 -41 -10 -59 -1 -90 45 -38 57 -100 86 -165 77 -55 -8
-70 -20 -42 -35 18 -10 21 -21 21 -70 0 -57 -18 -91 -47 -91 -5 0 -18 -10 -29
-21 -18 -20 -25 -21 -112 -14 -89 6 -161 29 -178 56 -11 18 27 21 66 5 22 -9
59 -16 82 -16 44 0 55 9 87 72 18 35 18 39 2 72 -10 22 -30 41 -54 52 -24 11
-45 31 -57 53 -10 20 -27 45 -39 55 -12 11 -21 28 -21 39 0 12 -22 42 -50 69
-33 31 -50 56 -50 72 0 13 -8 34 -19 47 -20 24 -81 37 -195 38 l-59 1 7 -40
c8 -50 -5 -76 -47 -94 -30 -14 -31 -15 -10 -21 28 -9 63 -63 63 -98 0 -26 16
-37 53 -37 12 0 36 -8 52 -18 17 -10 42 -22 56 -25 16 -4 31 -18 39 -36 20
-49 -1 -62 -64 -41 -41 13 -150 39 -153 36 -2 -1 6 -20 17 -41 11 -22 20 -45
20 -52 0 -6 -33 -33 -72 -59 -129 -82 -134 -92 -94 -165 13 -24 33 -73 45
-109 35 -108 121 -491 121 -538 0 -35 7 -55 34 -91 74 -102 94 -172 57 -205
-11 -10 -41 -24 -67 -32 -61 -18 -94 -40 -94 -62 0 -33 53 -101 96 -124 37
-19 46 -21 82 -10 24 7 54 28 76 52 40 45 55 49 80 21 21 -23 40 -148 40 -263
0 -84 -13 -108 -78 -148 -33 -21 -34 -20 -196 58 -75 36 -106 46 -147 47 -64
0 -92 -20 -72 -53 10 -15 10 -29 3 -49 -11 -31 -39 -40 -159 -50 -38 -3 -76
-10 -83 -16 -8 -6 -24 -32 -38 -58 -23 -47 -70 -99 -88 -99 -5 0 -17 7 -27 16
-10 9 -26 14 -35 10 -13 -5 -16 -16 -12 -58 5 -44 11 -55 43 -82 35 -30 38
-36 44 -104 8 -87 21 -105 54 -74 15 15 36 22 61 22 29 0 44 7 64 30 29 33 58
38 102 15 21 -11 36 -12 55 -5 33 12 63 -2 69 -33 3 -12 7 -50 9 -85 l5 -63
-69 7 c-62 6 -69 5 -69 -11 0 -10 7 -27 16 -37 14 -15 15 -20 4 -34 -13 -15
-25 -15 -62 1 -13 5 -18 2 -18 -9 0 -9 11 -21 25 -26 14 -5 25 -13 25 -18 0
-15 70 -82 86 -82 8 0 19 -11 26 -24 7 -17 20 -26 41 -28 28 -3 31 -7 42 -58
10 -50 39 -120 50 -120 2 0 3 19 2 42 -2 38 1 43 26 52 27 10 32 7 70 -37 23
-25 54 -51 70 -57 19 -7 27 -16 27 -34 0 -34 -23 -50 -62 -42 -18 4 -50 10
-70 13 -37 5 -38 4 -38 -26 0 -26 6 -33 35 -45 39 -17 39 -17 25 -64 -10 -36
-12 -32 61 -98 16 -15 59 -146 59 -183 0 -11 -4 -22 -9 -26 -6 -3 -66 -8 -135
-11 -134 -6 -146 -3 -202 46 -20 17 -49 30 -78 34 -53 8 -67 25 -86 102 -12
48 -11 55 8 93 12 23 22 52 22 65 0 31 24 50 55 43 25 -4 25 -4 9 14 -9 11
-26 19 -36 19 -11 0 -43 22 -71 49 -55 52 -63 54 -206 71 -97 12 -166 40 -242
100 -55 44 -54 43 -145 25 -25 -6 -37 -1 -73 29 -44 37 -94 52 -136 42 -33 -8
-31 -17 10 -43 23 -15 37 -35 44 -60 22 -77 12 -95 -69 -130 -51 -21 -192 -24
-243 -4 -16 6 -50 11 -77 11 -39 0 -52 5 -67 24 -24 31 -70 39 -223 40 -112 1
-130 -1 -167 -22 -23 -12 -47 -32 -54 -43 -11 -20 -16 -21 -95 -15 -77 6 -103
-1 -74 -19 5 -3 10 -14 10 -25 0 -27 -49 -40 -150 -40 -96 0 -114 -8 -123 -56
-5 -28 -2 -32 36 -50 28 -13 43 -26 45 -41 4 -28 -42 -77 -64 -69 -9 3 -28 9
-42 12 l-27 5 28 -25 c18 -17 40 -26 61 -26 32 0 66 -24 66 -47 0 -6 7 -14 16
-17 11 -4 15 -14 11 -32 -7 -36 16 -54 69 -54 37 0 51 -6 76 -30 24 -24 38
-30 74 -30 39 0 50 5 78 35 19 19 42 35 52 35 20 0 109 -43 135 -66 23 -21
107 -7 143 23 23 19 40 24 80 23 28 -1 66 2 85 6 31 6 33 5 25 -12 -5 -11 -10
-71 -11 -134 -4 -149 -16 -256 -35 -300 -9 -19 -21 -58 -27 -86 -7 -28 -21
-65 -32 -84 l-20 -32 -90 4 c-59 3 -89 1 -89 -6 0 -16 49 -118 64 -136 8 -8
21 -38 30 -67 10 -28 24 -57 32 -64 8 -7 27 -33 41 -57 l27 -45 23 27 c18 21
23 39 23 79 0 61 13 88 32 69 9 -9 9 -24 2 -59 -14 -73 -5 -106 34 -119 35
-11 58 -30 94 -81 87 -120 128 -185 128 -201 0 -11 8 -30 19 -43 10 -13 21
-34 25 -46 4 -13 14 -23 21 -23 21 0 84 -58 112 -104 20 -30 26 -56 29 -115 5
-101 10 -116 46 -170 37 -53 46 -61 74 -61 34 0 82 -59 95 -118 6 -29 20 -63
30 -75 43 -48 109 -137 109 -147 0 -6 16 -26 35 -46 46 -46 55 -82 27 -105
-28 -22 -28 -45 3 -111 14 -29 25 -63 25 -76 0 -13 7 -37 16 -54 9 -18 13 -40
9 -55 -8 -35 19 -63 61 -63 18 0 69 16 113 35 43 19 108 42 143 51 34 8 75 24
89 34 15 10 41 18 62 17 28 -1 45 6 69 29 34 32 162 94 192 94 9 0 40 10 67
21 49 21 49 22 49 68 0 44 3 49 41 74 22 15 60 30 82 33 23 4 55 13 71 21 20
10 42 13 73 8 l44 -6 -6 45 -7 45 43 11 c24 7 50 14 57 16 6 2 12 14 12 28 0
16 16 39 45 67 34 32 49 57 61 99 22 74 28 84 52 88 12 2 24 13 28 25 3 12 24
40 45 63 47 48 64 109 33 121 -28 10 -75 65 -69 80 6 17 -25 30 -88 38 -38 5
-60 17 -111 60 -60 51 -65 58 -71 107 -4 29 -14 61 -23 71 -13 15 -14 22 -4
37 7 11 12 22 12 25 0 11 -57 -62 -90 -115 -49 -80 -78 -108 -131 -125 -43
-15 -51 -15 -77 -1 -23 12 -36 13 -59 4 -24 -9 -36 -7 -71 11 l-42 21 6 84 c6
74 5 84 -11 90 -25 9 -29 2 -29 -62 -1 -48 -4 -57 -20 -60 -23 -5 -46 22 -46
53 0 12 -11 32 -24 44 -17 16 -26 38 -31 76 -6 48 -10 56 -41 74 -19 11 -34
27 -34 35 0 8 -8 21 -18 28 -19 14 -57 74 -92 144 -11 23 -29 44 -40 47 -36 9
-23 42 35 86 56 41 79 49 90 31 3 -5 21 -10 39 -10 29 0 38 -8 82 -72 28 -40
58 -93 68 -118 29 -76 42 -90 83 -90 25 0 53 -11 89 -36 30 -19 76 -42 104
-50 27 -8 52 -19 55 -24 12 -19 44 -10 85 25 41 34 55 39 115 36 43 -3 95 -60
95 -104 0 -45 46 -91 82 -82 14 4 49 -1 79 -9 29 -9 75 -16 103 -16 30 0 70
-9 96 -21 40 -19 52 -20 110 -10 157 24 195 27 241 18 39 -8 58 -6 96 8 96 34
127 29 128 -21 0 -20 8 -32 30 -44 17 -9 40 -34 52 -55 12 -21 34 -45 50 -53
15 -8 49 -34 75 -58 48 -45 66 -50 151 -44 21 1 27 -3 27 -18 0 -24 -57 -54
-87 -46 -11 3 -24 0 -28 -6 -9 -14 152 -169 175 -170 29 0 88 21 101 36 8 9
12 36 11 62 -2 46 10 72 33 72 15 0 48 -77 39 -91 -3 -5 4 -24 15 -43 25 -40
26 -69 5 -105 -18 -31 -18 -33 45 -214 20 -56 31 -107 31 -142 0 -45 5 -60 29
-87 15 -18 44 -64 64 -103 19 -38 47 -81 61 -94 17 -16 26 -35 26 -56 0 -18 7
-54 15 -81 8 -27 15 -61 15 -76 0 -18 13 -40 38 -65 40 -40 114 -208 131 -296
4 -25 18 -57 30 -72 11 -15 21 -33 21 -40 0 -16 23 -25 61 -25 25 0 32 6 45
37 9 21 31 54 49 73 28 30 46 68 49 104 1 10 20 21 50 30 14 5 17 12 12 34
-19 85 -18 122 3 192 19 61 20 77 10 101 -6 16 -9 40 -6 54 2 14 -2 54 -9 88
-11 55 -11 66 4 97 11 24 27 38 48 44 21 6 35 19 42 38 9 23 15 28 31 23 30
-9 61 12 78 53 8 20 26 49 40 64 14 15 31 37 37 50 6 13 20 24 31 26 11 2 31
21 45 44 30 49 131 143 181 169 42 21 49 34 49 97 1 54 12 72 57 95 33 17 38
18 139 17 43 -1 64 3 74 14 7 9 20 16 29 16 38 0 71 24 71 52 0 33 27 51 54
36 28 -16 49 -76 56 -159 6 -69 10 -80 45 -122 37 -45 40 -46 62 -32 29 20 67
10 93 -22 24 -31 25 -51 3 -75 -14 -16 -15 -21 -4 -27 7 -5 21 -6 32 -4 29 8
65 -41 89 -120 18 -59 20 -77 11 -108 -27 -89 -10 -113 77 -106 46 3 64 9 85
31 14 14 31 26 37 26 5 0 10 15 10 34 0 40 24 65 48 50 17 -11 26 -25 42 -64
6 -14 22 -40 35 -59 18 -24 25 -47 25 -78 0 -24 7 -58 17 -76 9 -18 17 -53 18
-80 1 -34 8 -53 23 -68 22 -20 29 -73 23 -166 -2 -23 3 -35 17 -42 31 -16 35
-42 12 -73 -25 -33 -25 -57 -3 -96 17 -29 17 -32 -5 -70 -26 -47 -33 -158 -8
-149 28 11 139 -91 176 -163 7 -14 24 -37 38 -52 21 -23 26 -41 35 -130 8 -87
13 -107 34 -129 13 -14 35 -57 49 -94 23 -64 37 -84 58 -85 4 0 33 -22 63 -50
87 -79 163 -87 163 -16 0 32 -14 53 -55 81 -17 12 -20 28 -25 137 -6 131 -26
195 -69 218 -11 5 -23 19 -26 30 -3 11 -15 20 -25 20 -10 0 -27 15 -38 34 -14
23 -30 36 -53 41 -51 11 -69 26 -95 77 -13 26 -37 69 -54 95 -16 26 -30 57
-30 69 0 15 -9 25 -27 32 -20 7 -33 22 -45 55 -19 53 -12 99 27 173 21 39 25
60 25 131 0 76 2 86 25 108 43 44 90 25 79 -32 -5 -26 -2 -31 18 -36 12 -4 33
-7 45 -7 12 0 34 -11 50 -23 15 -13 40 -27 56 -31 15 -3 27 -10 27 -15 0 -4 9
-18 20 -31 11 -13 20 -36 20 -52 0 -16 5 -28 13 -28 7 0 23 -13 35 -30 16 -21
31 -30 50 -30 18 0 42 -12 65 -34 l38 -34 -7 -66 c-6 -56 -4 -67 10 -72 12 -5
29 5 54 30 20 20 50 49 65 64 16 15 38 47 50 72 20 42 25 45 69 52 57 8 77 21
123 81 34 44 36 51 37 129 2 91 -10 152 -35 189 -10 13 -17 34 -17 47 0 26
-14 58 -40 87 -10 11 -20 31 -23 45 -4 17 -19 32 -44 44 -33 16 -47 26 -103
77 -9 9 -31 24 -48 34 -30 18 -52 52 -52 80 0 7 -8 16 -17 19 -30 10 -61 68
-66 124 -4 46 0 59 24 95 16 23 29 51 29 62 0 25 18 45 40 45 9 0 27 11 40 25
31 33 76 46 137 41 66 -5 73 -10 66 -51 -7 -43 18 -85 50 -85 36 0 46 18 40
69 -7 64 10 81 83 81 59 0 169 39 190 68 8 11 25 15 57 13 47 -2 89 14 136 50
13 11 39 19 57 19 23 0 34 5 34 14 0 8 25 36 55 62 30 26 55 53 55 60 0 7 16
25 35 40 19 14 35 35 35 44 0 10 11 27 25 38 23 18 25 26 25 104 0 101 28 190
70 228 27 23 29 31 32 110 l3 85 -70 10 c-81 12 -92 30 -32 58 39 18 43 31 27
81 -5 17 -14 49 -20 71 -9 37 -14 42 -53 52 -55 15 -92 51 -137 133 -48 87
-65 107 -113 132 -23 11 -45 26 -49 32 -15 22 -8 64 17 100 14 20 25 41 25 45
0 21 43 61 66 61 28 0 74 41 74 65 0 12 -10 15 -42 14 -24 0 -61 5 -83 12 -53
16 -111 5 -118 -21 -4 -14 -14 -20 -35 -20 -23 0 -40 11 -75 50 -26 28 -54 50
-65 50 -11 0 -43 18 -72 41 -38 30 -50 46 -48 62 3 19 10 22 62 24 69 3 83 12
64 42 -12 19 -10 24 20 52 18 17 38 45 46 62 10 26 23 35 61 46 l48 14 29 -32
c32 -35 35 -66 12 -99 -13 -18 -14 -29 -5 -54 6 -17 8 -41 5 -54 -9 -37 10
-29 50 20 52 64 113 83 210 66 39 -7 82 -19 95 -27 22 -14 23 -20 19 -85 -8
-107 -10 -105 87 -110 64 -2 88 -7 104 -22 22 -20 29 -70 11 -81 -20 -12 -11
-55 15 -67 31 -14 44 -52 55 -157 9 -86 27 -121 60 -121 25 0 30 9 20 36 -23
59 40 104 145 104 44 0 56 4 65 20 13 25 3 85 -17 102 -8 6 -25 32 -38 57 -34
66 -199 227 -250 243 -28 9 -41 19 -43 34 -2 12 -14 26 -28 33 -35 15 -30 61
8 79 66 31 85 97 47 159 -21 34 -21 35 -3 74 11 21 22 39 27 39 4 0 7 6 7 14
0 22 40 66 60 66 11 0 36 -11 56 -25 56 -38 100 -34 163 16 49 39 51 42 45 79
-3 21 -1 47 5 59 6 11 23 60 37 108 24 83 24 91 13 180 -12 90 -12 94 10 116
l21 24 -44 89 c-24 49 -56 100 -71 114 -35 32 -62 86 -76 149 -8 37 -18 56
-42 74 -18 13 -48 47 -67 76 -23 33 -46 55 -67 62 -17 5 -42 18 -55 28 -25 19
-147 61 -178 61 -13 0 -25 -12 -34 -35 -8 -19 -22 -35 -30 -35 -16 0 -56 37
-56 52 0 4 -16 8 -35 8 -26 0 -42 7 -62 30 -24 28 -31 30 -94 30 -37 0 -71 4
-74 10 -12 20 15 91 40 100 32 12 38 24 40 85 3 59 9 75 31 75 8 0 14 7 14 15
0 8 5 24 12 34 8 14 9 26 1 43 -11 26 0 71 26 101 16 19 15 19 311 18 14 -1
58 -2 98 -4 52 -2 72 1 72 9 0 7 10 20 22 28 20 14 25 14 55 -5 26 -17 43 -20
74 -15 50 8 79 -7 79 -41 l0 -26 77 7 c43 4 83 12 90 17 6 6 37 11 67 12 82 2
69 27 -14 27 -22 0 -45 7 -54 16 -20 19 -21 58 -2 73 10 9 12 28 8 76 -4 51
-2 65 9 67 8 1 32 3 54 4 22 2 66 6 97 10 56 6 57 5 101 -35 24 -23 53 -41 65
-41 11 0 22 -7 26 -15 9 -23 44 -18 52 8 4 12 15 33 25 46 25 32 25 35 -17 54
-47 23 -42 48 10 61 38 8 41 7 70 -27 116 -133 124 -152 85 -193 -17 -19 -22
-41 -28 -134 -6 -93 -11 -115 -26 -126 -10 -8 -24 -14 -31 -14 -16 0 -8 -107
10 -131 62 -87 94 -120 192 -198 62 -50 129 -111 149 -135 20 -25 62 -59 93
-77 31 -17 89 -65 128 -105 39 -41 77 -74 84 -74 22 0 8 120 -18 157 -28 40
-28 61 1 65 33 5 35 45 3 75 -43 39 -30 69 33 75 45 4 50 22 9 39 -37 15 -118
87 -118 105 0 7 18 15 40 19 22 4 40 10 40 14 0 17 -48 51 -73 51 -18 0 -34
11 -54 37 -58 76 -79 93 -118 93 -63 0 -115 45 -115 99 0 10 -11 26 -25 35
-48 32 -23 98 29 75 29 -14 56 1 56 31 0 10 7 21 16 24 21 8 64 -19 64 -39 0
-8 7 -15 15 -15 8 0 15 7 15 15 0 9 11 27 25 40 40 40 142 30 194 -19 23 -22
77 -39 82 -26 1 3 -1 16 -6 29 -4 13 -3 33 3 45 5 11 13 35 18 51 7 20 19 33
39 40 35 12 95 70 95 91 0 19 27 29 43 16 6 -5 45 -12 85 -16 40 -3 78 -7 84
-9 6 -1 12 3 14 8 7 19 -513 381 -834 580 l-142 89 -113 1 c-93 1 -120 4 -157
22 -43 21 -51 21 -154 11 -80 -8 -121 -8 -155 0 -40 10 -116 16 -146 13 -28
-4 35 -31 71 -31 51 0 97 -32 92 -64 -4 -29 -39 -32 -91 -7 -24 12 -59 21 -78
21 -46 0 -123 42 -127 69 l-3 21 -31 -23 c-36 -26 -78 -28 -254 -8 -90 10
-126 11 -142 2 -42 -22 -192 -7 -192 20 0 5 -17 20 -37 33 -91 60 -445 104
-560 70 -63 -18 -109 -14 -174 16 -24 11 -57 20 -74 20 -16 0 -65 8 -107 17
-62 13 -78 20 -78 35 0 19 -12 23 -92 32 -25 3 -52 7 -59 8 -7 2 -18 -8 -25
-21 -26 -51 -64 -51 -64 0 0 16 -1 29 -2 30 -2 0 -50 3 -108 5 -58 3 -156 12
-219 20 -99 13 -114 13 -125 0 -6 -8 -19 -16 -29 -18 -31 -5 -24 -23 10 -26
29 -3 73 -43 73 -68 0 -4 -57 -4 -126 0 -85 5 -149 3 -200 -5 -70 -12 -77 -12
-120 9 -51 25 -61 24 -45 -6 17 -32 -9 -51 -61 -46 -96 10 -109 14 -135 33
-14 12 -33 21 -41 21 -9 0 -45 15 -81 33 -48 23 -81 32 -121 33 -80 2 -80 2
-80 25 0 13 11 25 35 35 46 19 44 34 -4 34 -22 0 -52 5 -67 10 -18 7 -36 7
-58 -1 -27 -10 -49 -8 -125 10 -104 24 -111 24 -111 13 0 -11 45 -32 69 -32
26 0 55 -25 48 -42 -5 -14 -13 -14 -59 -4 -29 7 -113 13 -186 14 -125 2 -137
4 -191 31 -54 26 -69 29 -182 32 -68 1 -141 -1 -162 -6 -32 -6 -44 -4 -67 14
-35 25 -43 26 -60 6 -17 -21 -47 -19 -86 6 -25 15 -42 18 -69 13 -37 -7 -45
-18 -19 -28 22 -9 7 -26 -23 -26 -14 0 -47 -8 -74 -17 -45 -16 -50 -16 -65 -1
-21 21 -12 45 22 59 15 5 42 23 61 39 19 17 39 30 45 30 20 0 98 43 98 55 0
24 -59 75 -87 75 -15 0 -59 11 -98 25 -78 27 -152 31 -275 14 -117 -17 -115
-17 -118 12 -3 25 -5 26 -74 26 -63 0 -74 3 -90 23 -17 21 -29 24 -119 27 -77
4 -99 1 -100 -9z m-1244 -3068 l18 -20 24 22 c18 17 26 19 35 10 9 -9 9 -20 0
-45 -21 -57 -15 -82 23 -111 40 -31 45 -63 15 -91 -15 -13 -20 -31 -20 -66 0
-37 -4 -49 -17 -52 -61 -17 -76 -17 -93 -2 -11 10 -32 14 -66 13 -45 -3 -49
-1 -52 20 -2 13 -12 32 -23 43 -15 15 -19 33 -19 92 0 75 9 97 42 97 9 0 22 9
28 20 6 11 18 20 26 20 10 0 14 6 11 14 -7 17 19 56 37 56 7 0 21 -9 31 -20z"/>
<path d="M6766 9502 c-3 -5 4 -23 14 -40 16 -26 26 -32 53 -32 19 0 55 -11 80
-24 43 -23 48 -24 104 -11 100 22 160 27 196 16 27 -9 41 -8 71 4 46 20 42 39
-10 43 -55 4 -235 30 -261 38 -19 5 -23 2 -23 -15 0 -11 -2 -21 -4 -21 -2 0
-34 11 -70 25 -65 25 -140 33 -150 17z"/>
<path d="M6680 9461 c0 -5 5 -13 10 -16 6 -3 10 -2 10 4 0 5 -4 13 -10 16 -5
3 -10 2 -10 -4z"/>
<path d="M7406 9428 c3 -4 34 -8 68 -8 42 0 79 -7 110 -20 33 -15 62 -20 103
-18 75 4 86 28 13 28 -28 0 -64 7 -80 15 -21 11 -56 14 -124 13 -52 -1 -92 -6
-90 -10z"/>
<path d="M7188 9333 c7 -3 16 -2 19 1 4 3 -2 6 -13 5 -11 0 -14 -3 -6 -6z"/>
<path d="M7271 9287 c-11 -14 -6 -16 31 -21 24 -3 73 -9 111 -14 37 -5 67 -5
67 -1 0 10 -87 37 -145 44 -40 6 -54 4 -64 -8z"/>
<path d="M9805 8920 c4 -6 11 -8 16 -5 14 9 11 15 -7 15 -8 0 -12 -5 -9 -10z"/>
<path d="M11490 7395 c7 -8 17 -15 22 -15 6 0 5 7 -2 15 -7 8 -17 15 -22 15
-6 0 -5 -7 2 -15z"/>
<path d="M9580 7352 c0 -5 9 -17 20 -27 12 -11 20 -31 20 -50 0 -27 14 -46 99
-128 55 -54 105 -97 110 -97 11 0 76 -97 91 -134 4 -12 22 -34 40 -51 18 -16
45 -58 61 -92 21 -47 34 -64 53 -69 20 -5 28 -16 37 -48 5 -22 25 -63 42 -91
18 -27 37 -59 43 -70 17 -30 41 -30 48 1 7 27 13 28 86 10 23 -6 24 -6 6 6
-37 25 -151 121 -168 142 -10 12 -18 31 -18 42 0 12 -9 33 -20 47 -27 34 -17
57 27 57 23 0 42 -8 59 -25 26 -26 44 -32 44 -15 0 6 -4 10 -9 10 -6 0 -36 24
-68 54 -32 29 -77 63 -100 75 -43 22 -52 31 -106 116 -18 27 -41 52 -52 55
-31 8 -95 60 -95 77 0 20 -110 133 -129 133 -10 0 -35 18 -56 40 -36 37 -65
51 -65 32z"/>
<path d="M12270 7180 c0 -6 7 -10 15 -10 8 0 15 2 15 4 0 2 -7 6 -15 10 -8 3
-15 1 -15 -4z"/>
<path d="M12395 7140 c3 -5 8 -10 11 -10 2 0 4 5 4 10 0 6 -5 10 -11 10 -5 0
-7 -4 -4 -10z"/>
<path d="M11050 6931 c-15 -28 -13 -33 13 -29 14 2 23 11 25 26 4 28 -23 30
-38 3z"/>
<path d="M10937 6453 c-4 -3 -7 -16 -7 -27 1 -21 1 -21 15 -2 8 11 15 23 15
28 0 10 -14 11 -23 1z"/>
<path d="M10813 6372 c-17 -11 -33 -59 -26 -77 8 -21 27 -13 31 12 2 12 12 29
23 39 10 9 19 21 19 26 0 10 -31 10 -47 0z"/>
<path d="M10280 6351 c0 -11 14 -29 30 -41 17 -12 30 -30 30 -40 0 -10 9 -35
21 -54 25 -43 22 -81 -6 -81 -16 0 -20 -7 -21 -33 -1 -17 -9 -41 -18 -51 -25
-28 -16 -53 21 -63 18 -5 39 -18 46 -29 19 -26 80 -24 85 4 3 12 -9 23 -42 37
-37 16 -46 24 -46 45 0 27 10 31 41 15 14 -8 25 -7 43 5 22 15 27 15 53 1 16
-8 36 -22 43 -31 19 -22 68 -47 80 -40 6 3 10 23 10 44 0 42 13 58 57 70 24 6
28 12 25 37 -1 16 -2 46 -2 68 0 28 -3 37 -13 33 -7 -3 -43 -8 -80 -12 -61 -7
-72 -5 -132 23 -36 17 -91 49 -122 72 -62 44 -103 52 -103 21z"/>
<path d="M10502 5913 c-39 -8 -52 -40 -43 -108 5 -32 13 -61 18 -62 36 -12 43
-30 49 -123 6 -86 4 -99 -16 -138 -27 -51 -61 -72 -85 -52 -8 7 -15 19 -15 27
0 8 -6 13 -12 11 -7 -3 -16 -26 -20 -53 -4 -26 -12 -61 -19 -76 -6 -16 -9 -36
-5 -44 8 -22 -19 -30 -54 -15 -25 10 -45 10 -108 -1 -74 -13 -79 -16 -131 -71
-30 -32 -60 -58 -67 -58 -7 0 -15 -4 -18 -8 -23 -38 106 -55 160 -22 17 11 38
20 46 20 9 0 26 9 39 19 22 17 106 28 166 22 7 -1 13 -21 15 -48 3 -41 7 -50
30 -61 35 -16 53 -7 77 41 19 37 19 37 -1 48 -23 13 -21 52 4 57 10 2 28 -8
42 -22 22 -25 27 -26 95 -20 l71 7 -3 30 c-3 40 24 58 51 34 18 -16 20 -16 35
1 22 25 21 35 -8 78 -13 20 -27 52 -31 73 -3 20 -13 60 -22 88 -13 43 -13 57
-3 76 11 20 7 35 -28 116 -42 99 -80 143 -136 159 -26 7 -30 13 -31 42 0 36
-5 40 -42 33z"/>
<path d="M784 5275 c-10 -8 -33 -15 -50 -15 -32 0 -54 -15 -54 -37 0 -19 70
-16 100 3 28 19 50 44 50 56 0 13 -24 9 -46 -7z"/>
<path d="M10246 5105 c-3 -8 -18 -15 -33 -15 -22 0 -33 -8 -47 -34 -17 -31
-17 -35 -1 -65 18 -37 51 -39 48 -4 -1 11 6 28 17 38 17 15 24 16 49 5 39 -16
51 -7 51 39 0 32 -4 40 -22 45 -37 10 -56 7 -62 -9z"/>
<path d="M9940 5053 c-14 -9 -26 -17 -28 -19 -2 -1 0 -18 3 -38 8 -39 30 -48
40 -16 3 11 16 25 27 31 16 9 24 7 40 -8 17 -17 18 -26 10 -77 -8 -48 -6 -63
11 -97 29 -58 49 -65 77 -27 20 27 21 35 11 63 -6 17 -11 54 -11 82 0 66 -27
103 -75 103 -19 0 -37 5 -40 10 -9 15 -37 12 -65 -7z"/>
<path d="M10055 4453 c-18 -17 -18 -18 -1 -21 24 -5 44 14 29 29 -7 7 -16 5
-28 -8z"/>
<path d="M2993 4305 c-3 -9 -3 -18 0 -22 10 -10 37 6 37 22 0 20 -29 20 -37 0z"/>
<path d="M9980 4254 c0 -8 5 -12 10 -9 6 3 10 10 10 16 0 5 -4 9 -10 9 -5 0
-10 -7 -10 -16z"/>
<path d="M9372 4088 c-6 -7 -20 -40 -31 -73 -33 -95 -26 -172 21 -222 29 -31
35 -29 43 14 4 21 14 51 22 67 14 27 14 32 -1 58 -13 21 -14 32 -6 47 14 27
13 94 -2 109 -15 15 -33 15 -46 0z"/>
<path d="M8338 3490 c-61 -33 -95 -98 -70 -138 10 -15 65 -32 103 -32 30 0 79
55 79 87 0 11 5 24 11 30 6 6 9 23 7 39 -3 27 -7 29 -48 31 -29 2 -58 -4 -82
-17z"/>
<path d="M9449 3313 c-10 -27 0 -149 17 -212 7 -23 5 -23 -29 -17 -22 4 -38 2
-42 -4 -4 -6 10 -41 32 -78 35 -61 41 -67 81 -75 43 -8 45 -11 46 -62 1 -30 2
-30 61 -33 51 -3 65 -8 92 -34 28 -27 33 -29 39 -15 8 22 27 21 48 -2 13 -15
15 -24 8 -38 -8 -13 -6 -23 6 -36 15 -16 14 -20 -2 -48 -10 -17 -16 -32 -14
-34 1 -2 20 -6 41 -10 37 -7 37 -7 37 26 0 19 4 40 9 48 7 10 3 23 -10 39 -10
14 -19 37 -19 52 0 30 -34 60 -69 60 -11 0 -23 5 -26 10 -3 6 -25 10 -49 10
-37 0 -46 5 -73 38 -16 20 -33 55 -36 78 -6 36 -1 51 34 119 l41 78 -33 66
c-18 36 -35 73 -39 81 -5 11 -26 16 -74 18 -64 3 -66 2 -77 -25z"/>
<path d="M6771 2767 c-18 -22 -19 -180 -1 -202 14 -17 15 -15 22 21 10 57 10
194 -1 194 -5 0 -14 -6 -20 -13z"/>
<path d="M9550 2765 c0 -3 10 -19 21 -35 15 -20 20 -36 15 -54 -4 -18 -2 -26
7 -26 39 0 54 90 18 110 -21 11 -61 14 -61 5z"/>
<path d="M2877 2693 c-25 -25 23 -31 63 -8 25 14 25 14 -16 15 -22 0 -44 -3
-47 -7z"/>
<path d="M9955 2669 c-4 -6 -16 -43 -26 -82 -21 -83 -34 -99 -91 -106 -37 -5
-43 -9 -49 -37 -3 -17 -13 -42 -22 -55 -23 -32 -21 -48 10 -81 43 -45 55 -38
97 65 49 120 50 121 69 125 11 2 20 -9 28 -37 8 -28 18 -41 30 -41 18 0 18 -5
19 154 0 26 -6 60 -13 74 -13 29 -41 40 -52 21z"/>
<path d="M9487 2643 c-14 -13 -6 -33 13 -33 11 0 20 4 20 9 0 13 -26 32 -33
24z"/>
<path d="M9698 2613 c5 -21 7 -23 10 -9 2 10 0 22 -6 28 -6 6 -7 0 -4 -19z"/>
<path d="M9705 2569 c-3 -4 -8 -28 -11 -53 -6 -43 -5 -46 16 -46 38 0 82 38
78 68 -2 22 -9 28 -41 33 -21 3 -40 3 -42 -2z"/>
<path d="M9430 2481 c0 -11 -5 -23 -11 -26 -5 -4 -22 -26 -37 -50 -15 -23 -53
-70 -84 -104 -57 -61 -64 -72 -52 -84 10 -10 62 21 68 41 3 10 19 25 35 35 20
11 31 28 35 52 5 24 15 39 31 47 30 13 49 62 34 89 -13 24 -19 24 -19 0z"/>
<path d="M9920 2375 c-12 -15 -7 -45 7 -45 19 1 45 30 40 45 -8 19 -31 19 -47
0z"/>
<path d="M5553 2288 c1 -46 0 -93 -1 -105 -6 -70 -5 -104 5 -168 l8 -50 48 -3
c43 -3 50 0 82 35 19 21 35 47 35 59 0 11 -20 59 -45 106 -25 48 -45 94 -45
102 0 9 -6 19 -14 22 -8 3 -22 23 -30 45 -27 67 -44 51 -43 -43z"/>
<path d="M10056 2343 c-3 -3 -6 -18 -6 -32 0 -37 -21 -62 -75 -91 l-46 -25
-17 23 c-15 20 -21 21 -48 12 -17 -6 -36 -21 -42 -34 -6 -13 -28 -32 -49 -42
-35 -17 -38 -23 -38 -59 0 -30 4 -41 18 -43 12 -3 19 5 23 27 8 39 18 45 65
42 21 -1 40 3 44 9 9 15 98 12 119 -3 18 -13 17 -15 -13 -36 -34 -25 -35 -30
-21 -81 8 -29 20 -41 64 -65 70 -38 85 -28 56 37 -21 48 -19 72 7 82 21 9 41
-10 45 -42 2 -16 9 -27 18 -27 12 0 16 17 18 81 2 70 0 83 -18 99 -12 11 -20
31 -20 50 0 43 -66 136 -84 118z"/>
<path d="M10977 2113 c-4 -3 -7 -13 -7 -22 1 -13 3 -13 11 2 11 19 8 33 -4 20z"/>
<path d="M6921 2054 c0 -11 3 -14 6 -6 3 7 2 16 -1 19 -3 4 -6 -2 -5 -13z"/>
<path d="M9203 2033 c-7 -2 -17 -21 -23 -42 -5 -20 -26 -56 -45 -78 -19 -23
-35 -48 -35 -56 0 -22 -27 -40 -51 -34 -15 4 -32 -5 -60 -33 -21 -21 -39 -41
-39 -45 0 -13 -93 -136 -110 -145 -10 -6 -37 -10 -59 -10 -35 0 -43 -5 -66
-37 -14 -21 -25 -47 -25 -60 0 -12 -3 -28 -6 -37 -7 -18 -39 -21 -50 -5 -3 6
-15 9 -25 6 -10 -3 -30 3 -43 14 -32 25 -40 24 -70 -12 -21 -25 -26 -41 -26
-85 0 -30 7 -68 15 -84 8 -16 12 -36 9 -44 -4 -10 10 -36 35 -67 24 -30 42
-64 43 -80 1 -16 2 -42 3 -58 1 -15 9 -39 19 -52 9 -13 16 -32 16 -42 0 -17 7
-19 68 -16 63 4 67 3 70 -18 3 -18 10 -23 34 -23 18 0 46 5 64 12 26 9 42 9
76 -3 24 -7 49 -12 56 -11 21 5 39 -16 46 -53 9 -44 25 -44 82 -3 56 40 104
131 104 197 0 43 4 49 52 92 46 41 53 52 54 85 3 147 10 160 86 150 39 -5 50
-4 54 9 8 19 -30 63 -63 76 -19 7 -23 16 -23 52 0 33 -6 49 -24 66 -26 24 -43
102 -31 140 3 11 24 28 46 37 36 16 54 44 28 44 -19 0 -5 45 16 49 11 2 30 7
43 12 19 7 21 12 12 29 -6 11 -22 23 -37 26 -39 10 -103 56 -103 74 0 41 -74
81 -117 63z"/>
<path d="M7103 1863 c4 -20 19 -52 35 -72 16 -20 34 -46 40 -58 7 -12 27 -27
47 -33 44 -14 115 -101 115 -140 0 -45 10 -59 46 -66 36 -7 74 -44 74 -73 0
-9 9 -43 19 -75 13 -43 25 -63 45 -73 14 -7 26 -18 26 -23 0 -5 9 -18 21 -29
12 -11 31 -49 44 -84 12 -36 34 -84 48 -108 15 -24 36 -64 47 -88 11 -25 36
-62 55 -83 19 -21 35 -43 35 -49 0 -5 16 -17 36 -25 39 -16 144 -118 144 -139
0 -22 32 -35 54 -23 10 6 36 7 57 4 l39 -6 0 106 c0 98 2 110 25 140 l24 32
-37 46 c-22 27 -45 46 -57 46 -11 0 -32 15 -46 33 -37 47 -42 57 -49 97 -4 29
-10 36 -35 40 -27 5 -30 9 -33 47 -2 23 2 51 7 62 14 24 -9 51 -43 51 -28 0
-49 22 -40 43 11 29 -14 56 -53 59 -33 3 -39 7 -43 33 -5 25 -10 30 -31 27
-16 -1 -34 7 -49 23 -13 14 -32 25 -43 25 -19 0 -44 23 -127 118 -25 29 -49
52 -55 52 -14 0 -85 67 -85 80 0 6 -12 27 -27 46 -27 33 -31 34 -94 34 -51 0
-72 5 -92 20 -39 31 -51 26 -44 -17z"/>
<path d="M10845 1780 c3 -5 11 -10 16 -10 6 0 7 5 4 10 -3 6 -11 10 -16 10 -6
0 -7 -4 -4 -10z"/>
<path d="M7140 1575 c0 -10 10 -15 31 -15 27 0 30 2 19 15 -7 8 -21 15 -31 15
-11 0 -19 -7 -19 -15z"/>
<path d="M10390 1528 c0 -7 5 -20 10 -28 8 -12 10 -9 10 13 0 15 -4 27 -10 27
-5 0 -10 -6 -10 -12z"/>
<path d="M10341 1477 c-6 -8 -18 -34 -26 -58 -15 -41 -15 -48 2 -97 18 -53 17
-54 -5 -93 -22 -39 -22 -39 -2 -39 11 0 32 -7 45 -16 22 -15 25 -15 25 -1 0 9
-4 18 -9 21 -5 3 -12 22 -15 42 -9 44 6 64 45 64 25 0 29 4 29 28 0 15 3 44 6
65 6 36 5 39 -17 36 -31 -4 -49 7 -49 31 0 25 -15 33 -29 17z"/>
<path d="M10050 1441 c0 -5 -17 -28 -38 -50 -37 -40 -38 -40 -107 -39 -39 0
-79 5 -90 11 -11 6 -49 17 -85 24 -61 13 -65 13 -80 -6 -8 -11 -36 -29 -62
-40 l-48 -20 0 -76 c0 -71 -2 -76 -30 -102 -26 -23 -30 -33 -30 -79 0 -35 -7
-64 -21 -88 -11 -20 -19 -47 -17 -63 2 -23 7 -28 29 -25 61 6 84 -75 50 -176
-12 -35 -19 -67 -16 -73 9 -13 72 -11 81 3 4 7 9 73 10 148 2 74 3 143 3 152
1 25 36 41 61 28 17 -9 19 -17 14 -69 -6 -57 -6 -59 22 -73 20 -9 28 -20 26
-33 -10 -57 -7 -70 16 -73 12 -2 22 1 22 7 0 18 31 41 56 41 30 0 30 10 0 55
-21 31 -23 40 -14 61 10 22 8 29 -24 62 -69 72 -70 110 -4 132 18 6 48 27 66
46 18 20 38 33 46 30 18 -7 28 12 14 28 -13 17 -87 10 -111 -10 -8 -8 -27 -14
-42 -14 -18 0 -30 -8 -39 -27 -18 -37 -49 -36 -66 1 -8 15 -23 37 -33 47 -13
13 -19 33 -19 63 0 61 14 70 89 55 43 -9 69 -10 94 -2 20 6 76 8 131 5 111 -6
121 -1 162 80 29 58 30 68 4 68 -11 0 -20 -4 -20 -9z"/>
<path d="M4871 1324 c0 -11 3 -14 6 -6 3 7 2 16 -1 19 -3 4 -6 -2 -5 -13z"/>
<path d="M8030 1240 c0 -5 7 -10 15 -10 8 0 15 5 15 10 0 6 -7 10 -15 10 -8 0
-15 -4 -15 -10z"/>
<path d="M7420 1132 c0 -15 27 -45 37 -41 16 6 -3 49 -22 49 -8 0 -15 -4 -15
-8z"/>
<path d="M9873 1113 c-22 -8 -14 -23 12 -23 14 0 25 4 25 9 0 11 -21 19 -37
14z"/>
<path d="M10303 1085 c-8 -22 -3 -24 42 -16 38 7 39 8 18 19 -30 16 -52 15
-60 -3z"/>
<path d="M8112 1064 c-30 -21 -28 -44 4 -44 19 0 29 -8 39 -32 20 -44 52 -81
65 -73 20 13 11 64 -15 81 -14 9 -25 24 -25 34 0 50 -27 63 -68 34z"/>
<path d="M10000 1060 c0 -19 5 -21 43 -18 29 2 42 8 42 18 0 10 -13 16 -42 18
-38 3 -43 1 -43 -18z"/>
<path d="M10555 1060 c-10 -16 15 -41 39 -38 32 5 28 42 -6 46 -14 2 -29 -2
-33 -8z"/>
<path d="M8326 951 c-16 -18 -13 -51 6 -51 39 0 65 51 32 64 -21 8 -19 9 -38
-13z"/>
<path d="M10396 927 c-11 -8 -16 -22 -14 -36 3 -21 8 -23 80 -25 64 -2 82 -6
101 -24 25 -23 61 -29 72 -11 4 5 4 21 1 35 -8 32 -63 57 -132 60 -28 1 -60 4
-70 8 -11 3 -28 0 -38 -7z"/>
<path d="M10187 903 c-16 -27 36 -79 67 -67 16 6 22 49 9 57 -18 11 -71 18
-76 10z"/>
<path d="M9828 723 c-40 -20 -48 -28 -48 -52 0 -31 32 -66 53 -58 8 3 17 24
20 47 3 23 12 49 21 59 34 37 21 38 -46 4z"/>
<path d="M10973 577 c-17 -23 -35 -55 -39 -70 -6 -26 -4 -28 17 -25 38 5 97
139 61 138 -4 0 -21 -20 -39 -43z"/>
<path d="M8130 554 c-6 -16 -13 -35 -15 -41 -2 -7 -12 -13 -20 -13 -11 0 -15
-7 -13 -22 3 -20 8 -22 45 -20 38 3 44 0 55 -22 10 -23 16 -25 43 -20 19 3 47
-1 70 -10 24 -10 68 -16 122 -16 53 0 95 -5 111 -14 99 -51 119 -56 213 -56
52 0 115 -7 141 -14 55 -17 74 -8 84 41 8 41 -19 57 -79 48 -47 -7 -60 1 -71
46 -4 21 -14 28 -43 34 -21 4 -46 14 -55 22 -9 8 -23 13 -30 10 -7 -2 -21 2
-30 11 -16 13 -20 12 -47 -17 -33 -36 -41 -37 -83 -15 -17 9 -54 18 -82 20
-28 2 -52 8 -54 13 -2 6 -11 20 -20 30 -14 17 -35 21 -124 27 l-107 7 -11 -29z"/>
<path d="M9580 570 c0 -5 5 -10 10 -10 6 0 10 5 10 10 0 6 -4 10 -10 10 -5 0
-10 -4 -10 -10z"/>
<path d="M8847 494 c-14 -14 15 -44 42 -44 28 0 67 31 54 43 -8 9 -88 9 -96 1z"/>
<path d="M10678 437 c-21 -18 -68 -84 -68 -96 0 -6 6 -11 13 -11 14 0 87 83
87 99 0 17 -16 21 -32 8z"/>
<path d="M10175 395 c-5 -2 -22 -6 -37 -9 -16 -4 -28 -11 -28 -16 0 -15 43
-12 66 4 19 14 18 26 -1 21z"/>
<path d="M9247 299 c-74 -53 -65 -66 30 -49 124 23 145 30 141 48 -2 9 -18 20
-38 25 -19 4 -44 10 -55 13 -13 3 -41 -10 -78 -37z"/>
<path d="M9000 323 c0 -3 7 -14 15 -24 13 -14 20 -15 40 -5 39 17 31 36 -15
36 -22 0 -40 -3 -40 -7z"/>
<path d="M9121 294 c-26 -44 -26 -44 4 -44 26 0 45 25 45 59 0 33 -26 25 -49
-15z"/>
<path d="M9527 300 c-68 -43 -64 -51 35 -65 37 -5 55 -2 90 16 24 13 63 25 88
28 32 4 46 11 48 24 4 21 -11 22 -76 1 -49 -16 -51 -16 -78 5 -35 28 -51 27
-107 -9z"/>
<path d="M9857 324 c-13 -13 -7 -24 14 -24 11 0 19 5 17 12 -5 14 -22 21 -31
12z"/>
<path d="M10155 313 c-11 -2 -44 -9 -72 -14 -40 -8 -61 -19 -85 -45 -18 -20
-61 -51 -95 -71 -58 -32 -63 -37 -63 -69 0 -47 33 -50 85 -8 112 91 108 89
242 150 35 16 63 32 63 36 0 9 -35 29 -47 27 -4 -1 -17 -3 -28 -6z"/>
<path d="M9430 191 c0 -12 11 -23 29 -29 16 -6 39 -20 51 -32 12 -12 28 -19
36 -16 22 8 17 44 -8 57 -13 7 -27 18 -31 25 -4 8 -24 14 -42 14 -28 0 -35 -4
-35 -19z"/>
<path d="M9770 35 c-9 -11 -10 -19 -3 -26 13 -13 53 9 53 28 0 18 -35 16 -50
-2z"/>
</g>
</svg>
