<?xml version="1.0" standalone="no"?>
<!DOCTYPE svg PUBLIC "-//W3C//DTD SVG 20010904//EN"
 "http://www.w3.org/TR/2001/REC-SVG-20010904/DTD/svg10.dtd">
<svg version="1.0" xmlns="http://www.w3.org/2000/svg"
 width="512.000000pt" height="512.000000pt" viewBox="0 0 512.000000 512.000000"
 preserveAspectRatio="xMidYMid meet">

<g transform="translate(0.000000,512.000000) scale(0.100000,-0.100000)"
fill="#000000" stroke="none">
<path d="M2503 5093 c-107 -101 -204 -289 -250 -483 -25 -106 -24 -320 1 -415
37 -139 67 -185 117 -185 82 0 97 44 56 165 -50 150 -48 333 4 488 22 63 87
196 114 231 15 20 15 20 30 0 27 -35 92 -168 114 -231 52 -154 53 -336 3 -488
-40 -121 -25 -165 57 -165 36 0 54 17 80 74 41 94 56 176 56 316 -1 144 -14
224 -61 355 -63 176 -200 365 -264 365 -17 0 -40 -11 -57 -27z"/>
<path d="M1693 4145 c-13 -9 -28 -35 -34 -58 -16 -59 -14 -247 4 -339 63 -312
288 -544 610 -628 98 -26 147 -5 147 62 0 45 -26 65 -128 97 -131 41 -233 103
-314 190 -109 117 -160 245 -174 436 l-7 88 43 -7 c226 -36 484 -217 580 -406
62 -121 63 -132 68 -444 l4 -290 -74 75 c-168 173 -412 291 -629 306 -80 5
-87 4 -107 -17 -27 -29 -36 -81 -35 -210 3 -278 106 -494 315 -656 98 -77 255
-146 358 -160 43 -6 51 -4 74 19 29 29 34 71 12 103 -9 13 -40 27 -83 39 -308
82 -491 298 -518 614 -10 112 -10 113 67 95 228 -53 440 -204 542 -387 66
-118 76 -184 76 -495 l0 -274 -65 70 c-74 80 -212 178 -322 229 -83 38 -225
77 -318 87 -114 12 -137 -25 -137 -219 0 -224 57 -390 185 -546 101 -121 265
-224 430 -269 85 -24 127 -18 147 21 31 56 -7 109 -91 129 -30 6 -97 32 -149
57 -79 38 -109 59 -176 127 -123 122 -175 246 -190 449 -8 99 -13 95 81 73
263 -63 499 -265 578 -496 22 -64 22 -73 27 -818 l5 -754 24 -19 c29 -24 53
-24 82 0 l24 19 5 759 5 758 26 67 c39 101 86 172 162 249 114 114 264 199
412 235 94 22 89 26 81 -73 -15 -203 -67 -327 -190 -449 -67 -68 -97 -89 -176
-127 -52 -25 -119 -51 -149 -57 -63 -15 -101 -47 -101 -85 0 -38 15 -60 49
-74 62 -26 280 58 415 160 202 154 307 381 308 664 0 195 -23 231 -137 219
-93 -10 -235 -49 -318 -87 -110 -51 -248 -149 -322 -229 l-65 -70 0 274 c0
245 2 283 21 354 30 114 78 195 178 295 122 122 254 195 419 233 77 18 77 17
67 -95 -27 -316 -210 -532 -518 -614 -43 -12 -74 -26 -83 -39 -22 -32 -17 -74
12 -103 23 -23 31 -25 74 -19 103 14 260 83 358 160 209 162 313 379 314 656
1 130 -7 181 -34 210 -20 21 -27 22 -107 17 -217 -15 -461 -133 -629 -306
l-74 -75 4 290 c5 312 6 323 68 444 56 111 188 239 322 314 69 38 189 81 258
92 l43 7 -7 -88 c-14 -191 -65 -319 -174 -436 -81 -87 -183 -149 -314 -190
-102 -32 -128 -52 -128 -97 0 -67 49 -88 147 -62 213 55 387 177 495 345 89
139 130 284 130 470 1 130 -13 188 -48 212 -23 15 -36 15 -115 4 -158 -21
-316 -81 -454 -174 -77 -52 -201 -176 -250 -249 -21 -32 -41 -58 -45 -58 -4 0
-24 26 -45 58 -49 73 -173 197 -250 249 -128 86 -267 143 -414 168 -106 19
-131 19 -158 0z"/>
</g>
</svg>
