<?xml version="1.0" encoding="utf-8"?>
<!-- Generator: Adobe Illustrator 27.4.0, SVG Export Plug-In . SVG Version: 6.00 Build 0)  -->
<svg version="1.1" id="Calque_1" xmlns="http://www.w3.org/2000/svg" xmlns:xlink="http://www.w3.org/1999/xlink" x="0px" y="0px"
	 viewBox="0 0 626 626" style="enable-background:new 0 0 626 626;" xml:space="preserve" fill="#4A433B">
<g transform="translate(0.000000,626.000000) scale(0.100000,-0.100000)">
	<path d="M5985,5883c-382-433-709-799-836-935c-89-95-117-119-156-132c-31-11-62-33-92-65c-59-62-81-69-626-206
		c-319-81-452-110-554-121c-94-11-180-28-290-60c-86-25-250-70-365-100c-115-29-220-61-233-69c-16-11-23-25-23-46c0-65,38-89,141-89
		c33,0,59-3,59-7c0-5-41-34-90-66c-117-76-150-104-150-129c0-55,58-94,125-84c43,7,166,61,214,95c44,31,261,143,261,135
		c0-4-13-22-29-39c-40-41-201-255-201-266c0-24,42-49,80-49c71,0,116,35,183,141c45,70,173,199,229,231c58,32,149,70,154,65
		c3-2-29-41-71-87c-41-45-75-85-75-89s-27-30-60-56s-60-56-60-65c0-28,34-50,76-50c46,0,66,12,150,89c120,111,254,221,269,221
		c31,0,305-80,347-101c55-27,98-68,98-91c0-55-53-108-187-187c-116-68-171-123-219-218c-29-56-39-90-42-137c-4-59-2-64,23-84
		c47-37,72-29,165,54c47,42,112,95,145,117s86,62,119,89c61,51,71,57,253,156c117,64,376,243,502,348c40,34,111,106,157,159
		c242,280,454,484,720,697l164,130v604c0,332-1,604-2,604C6256,6189,6134,6051,5985,5883z"/>
	<path d="M1069.4,1270.8c54.2,93,105.2,130,142.6,146.2c11.1,4.8,28.9,16.9,59,28c27,10,61,34,89,64c58,62,81,69,625,206
		c319,81,452,110,554,121c94,11,180,28,290,60c86,25,250,70,365,100c115,29,220,61,233,69c16,11,23,25,23,46c0,65-38,89-141,89
		c-33,0-59,3-59,8c1,4,51,41,112,82c62,41,116,82,121,91c16,26-1,68-36,90c-25,16-42,19-77,14c-45-5-168-58-218-94
		c-45-31-262-143-262-135c0,4,13,22,29,39c39,40,201,255,201,266c0,23-46,49-85,49c-58,0-115-43-170-129c-54-84-176-209-236-242
		c-63-35-150-71-156-65c-3,3,22,34,56,69c34,35,72,78,85,95c12,18,46,51,74,74c29,23,52,49,52,58c0,26-33,50-68,50
		c-49,0-79-16-140-74c-97-91-274-236-289-236c-32,0-306,81-352,105c-58,29-91,61-91,88c0,35,41,92,88,123c26,17,81,52,123,78
		c102,61,152,113,196,203c28,56,38,91,41,138c4,58,2,63-23,83c-47,37-72,29-165-54c-47-42-112-95-145-117s-86-62-118-89
		c-60-49-71-56-254-156c-117-64-376-243-502-348c-40-34-111-105-157-159c-241-278-455-486-721-697c-54.3-43.3-108.7-86.7-163-130
		C356.5,1275.6,712.9,1273.2,1069.4,1270.8z"/>
</g>
</svg>
